<svg width="158" height="52" viewBox="0 0 158 52" fill="none" xmlns="http://www.w3.org/2000/svg">
<path d="M36.8998 23.6919C38.468 23.0096 39.8868 22.0231 41.0752 20.7889C42.836 18.6946 43.7434 16.0083 43.6152 13.2693C43.6866 10.4532 42.7895 7.69846 41.0752 5.46987C38.2742 1.93739 33.49 0.118688 26.7398 0.03125H0V51.1123H24.9478C27.5676 51.1232 30.1827 50.8891 32.7593 50.4128C35.0052 50.0137 37.1404 49.1373 39.0223 47.8421C40.5851 46.7536 41.9159 45.3624 42.9367 43.7501C44.5795 41.3628 45.4429 38.5209 45.4072 35.6184C45.4892 32.96 44.7408 30.3427 43.2673 28.1337C41.6827 25.9956 39.4469 24.4359 36.8998 23.6919ZM10.9777 8.89743H23.1559C25.3232 8.85276 27.4855 9.12371 29.5755 9.70185C30.5272 10.0346 31.3398 10.6795 31.8826 11.5327C32.4254 12.386 32.6668 13.3981 32.5679 14.406C32.656 15.2895 32.4917 16.1799 32.0942 16.9728C31.6967 17.7657 31.0825 18.4283 30.3236 18.8828C28.4987 19.8083 26.4681 20.2478 24.4259 20.1594H10.9777V8.89743ZM30.1149 41.3368C28.3144 42.0107 26.3975 42.314 24.4781 42.2286H10.9777V28.6234H24.6869C26.574 28.5544 28.4571 28.8451 30.2366 29.4802C31.3236 29.8973 32.2485 30.6544 32.875 31.6399C33.5015 32.6254 33.7963 33.7871 33.7161 34.9538C33.8486 36.2597 33.575 37.5746 32.9332 38.7177C32.2914 39.8608 31.3128 40.7758 30.1323 41.3368H30.1149Z" fill="white"/>
<path d="M95.1118 7.62163C92.7567 4.50663 89.4701 2.23271 85.7346 1.13376C82.9613 0.382248 80.0995 0.011644 77.2273 0.0320488H53.5146V51.1131H77.2273C85.5432 51.1131 91.6903 47.9362 95.6685 41.5824C98.737 36.3661 100.264 30.3791 100.07 24.3222C100.048 21.4699 99.698 18.6296 99.0262 15.8583C98.3131 12.8662 96.9791 10.0594 95.1118 7.62163ZM86.6219 34.7798C85.7686 37.075 84.2076 39.036 82.1669 40.3762C80.1262 41.7165 77.7127 42.3658 75.2788 42.2294H64.6664V8.89822H75.2788C80.498 8.89822 83.9775 10.2797 85.7172 13.0603C87.6654 16.7427 88.5682 20.893 88.3268 25.0567C88.4292 28.381 87.8488 31.6909 86.6219 34.7798Z" fill="white"/>
<path d="M149.618 16.208C149.618 10.6994 147.982 6.60732 144.694 3.96671C140.859 1.15684 136.176 -0.233304 131.437 0.0320137H107.464V51.1131H118.894V32.7337H130.585C136.674 32.7337 141.366 31.4862 144.659 28.9914C147.953 26.4965 149.606 22.2353 149.618 16.208ZM135.996 22.1013C134.15 23.425 131.909 24.0731 129.646 23.9375H118.894V8.89819H129.611C131.854 8.78108 134.075 9.39436 135.943 10.6469C136.744 11.3445 137.367 12.2243 137.76 13.213C138.153 14.2016 138.306 15.2704 138.205 16.3304C138.297 17.4009 138.142 18.4784 137.753 19.4792C137.364 20.48 136.751 21.3773 135.961 22.1013H135.996Z" fill="white"/>
<path d="M157.081 40.7773H145.772V51.095H157.081V40.7773Z" fill="white"/>
</svg>
