<svg width="277" height="75" viewBox="0 0 277 75" fill="none" xmlns="http://www.w3.org/2000/svg">
<path d="M24.7716 0.113281V17.9987H6.1502L0 24.1145V49.1962L5.87003 55.0402H23.6783L24.7716 53.9529L26.3092 52.4375L28.5301 50.2358L31.2635 47.5177V0.113281H24.7716ZM24.7716 48.5642H6.51238V24.4746H24.7716V48.5642Z" fill="white"/>
<path d="M98.0002 17.998V24.474H79.905V55.0395H73.4062V24.7662L80.2125 17.998H98.0002Z" fill="white"/>
<path d="M132.311 17.998V22.3063L127.999 17.998H116.067L109.555 24.474L107.553 26.4719V46.6405L109.5 48.5636L111.673 50.7177L114.051 53.1165L116.013 55.0735H126.42L132.318 49.2023V59.2323L127.315 64.2065H117.188L112.241 59.2866L107.457 64.0434L114.092 70.6417H130.021L138.85 61.8553V17.998H132.311ZM132.311 40.0218L123.687 48.5636H118.685L114.024 43.9291V29.1628L118.739 24.474H125.279L132.283 31.4597L132.311 40.0218Z" fill="white"/>
<path d="M61.6738 17.998H42.8405V24.474H61.2911V30.95H42.6355L36.3418 37.2085V48.8354L42.5808 55.0395H61.5645L67.7967 48.8354V24.0935L61.6738 17.998ZM61.2843 48.5772H42.8337V37.4124H61.2843V48.5772Z" fill="white"/>
<path d="M275.879 23.978L270.098 18.2359L269.865 17.998H256.314L251.128 23.1557V17.998H244.643V74.3248H251.134V49.9498L256.26 55.0395H268.287L270.111 53.2388L274.813 48.5636L276.624 46.7628V24.7119L275.879 23.978ZM270.098 44.0786L265.594 48.5636H258.938L251.128 40.8101V32.2955L258.993 24.474H267.193L270.125 27.3892L270.098 44.0786Z" fill="white"/>
<path d="M239.72 17.998V55.0395H233.208V47.4899L232.135 48.5636L225.992 54.6658L225.609 55.0395H217.163L207.719 45.6484V17.998H214.231V42.9642L219.855 48.5636H222.923L233.208 38.3298V17.998H239.72Z" fill="white"/>
<path d="M195.37 17.998H179.722L177.706 20.0367L173.196 24.5012L171.193 26.499V46.6337L173.127 48.5636L177.706 53.0961L179.653 55.0395H194.885L196.683 53.2524L201.411 48.5636L203.195 46.79V25.7787L195.37 17.998ZM196.683 44.1058L192.193 48.5636H182.346L177.706 43.9563V29.1492L182.421 24.474H192.671L196.676 28.4629L196.683 44.1058Z" fill="white"/>
<path d="M168.331 17.998V24.4604H157.807L151.643 30.5898V55.0395H145.145V17.998H151.643V21.4637L155.128 17.998H168.331Z" fill="white"/>
</svg>
