<svg width="202" height="70" viewBox="0 0 202 70" fill="none" xmlns="http://www.w3.org/2000/svg">
<g clip-path="url(#clip0_2563_10106)">
<path d="M131.074 0.0217774V12.6494H90.1655C83.4791 12.6494 80.4755 16.5915 82.1442 23.1773C82.9522 26.359 84.9838 27.9499 88.3212 27.9382C96.6528 27.9382 104.984 27.9382 113.31 27.9382C126.824 27.9382 135.149 37.3314 133.551 50.7486C131.988 63.8792 125.67 69.4649 112.391 69.4649H71.4062V56.8782H113.972C117.942 56.8782 120.863 53.0882 120.875 47.9178C120.875 43.9464 117.748 40.6068 114.03 40.5717C104.253 40.4956 94.3986 41.1566 84.7262 40.133C71.7867 38.741 65.0476 23.0077 71.2598 10.345C73.1861 6.30926 75.9438 3.35561 79.6265 1.60096C81.9634 0.530079 84.5091 -0.00928674 87.0799 0.0217774H131.074Z" fill="white"/>
<path d="M41.6289 0.0224609C48.3153 0.993366 53.7838 3.98796 57.7828 9.5385C65.6226 20.4173 61.7056 40.0577 45.3644 42.6019L66.3427 69.4538H49.0881L19.2804 31.3078H21.3648C28.0044 31.2493 34.6732 31.5301 41.2717 31.0212C45.9557 30.6586 49.3165 25.8509 48.8832 21.435C48.7083 19.0456 47.6327 16.8115 45.8735 15.1832C44.1142 13.555 41.8022 12.6539 39.404 12.6618C30.563 12.6618 21.722 12.6618 12.7814 12.6618V69.4889H0V0.0224609H41.6289Z" fill="white"/>
<path d="M178.957 0.0215052C182.167 -0.0075557 185.351 0.598739 188.325 1.8054C192.201 3.39267 195.511 6.10437 197.828 9.59018C202.635 16.7316 203.203 24.3643 199.227 31.9853C195.251 39.6063 188.671 43.5484 180.064 43.9462C176.492 44.1099 172.909 43.9754 169.267 43.9754L159.366 31.3069H179.443C180.658 31.3069 182.027 31.2385 183.248 30.8136C184.468 30.3888 185.588 29.7162 186.535 28.8382C187.483 27.9601 188.239 26.8957 188.755 25.7118C189.271 24.5279 189.536 23.2502 189.533 21.959C189.531 20.6678 189.261 19.3911 188.741 18.2091C188.22 17.0272 187.461 15.9656 186.51 15.0912C185.559 14.2167 184.437 13.5483 183.214 13.1281C181.992 12.7078 180.696 12.5447 179.408 12.6491C170.596 12.6491 161.779 12.6491 152.897 12.6491V69.4412H140.062V0.0215052H178.957Z" fill="white"/>
</g>
<defs>
<clipPath id="clip0_2563_10106">
<rect width="201.885" height="69.484" fill="white" transform="translate(0 0.0214844)"/>
</clipPath>
</defs>
</svg>
