<svg width="285" height="79" viewBox="0 0 285 79" fill="none" xmlns="http://www.w3.org/2000/svg">
<g clip-path="url(#clip0_2410_27513)">
<path fill-rule="evenodd" clip-rule="evenodd" d="M142.057 0.0214844C151.168 0.0214844 159.12 3.99732 162.153 9.37065C156.385 8.10918 150.522 7.32651 144.625 7.03065C143.932 6.80315 142.762 7.49648 142.989 8.43898V28.3073H141.126V8.43898C141.353 7.49648 140.183 6.80315 139.252 7.03065C133.419 7.32887 127.621 8.11157 121.918 9.37065C124.724 3.95398 132.676 0.0214844 142.025 0.0214844M162.825 11.7107C163.095 12.4633 163.252 13.2519 163.291 14.0506C163.291 20.3556 157.213 25.729 148.807 27.6031L146.033 13.8123C145.836 12.8908 145.756 11.9481 145.795 11.0065C145.915 10.6673 146.136 10.3732 146.429 10.1639C146.721 9.95465 147.071 9.84034 147.431 9.83648C152.61 10.1045 157.765 10.7308 162.857 11.7107M135.276 27.6031C126.858 25.729 120.792 20.3556 120.792 14.1048C120.754 13.3179 120.83 12.5297 121.019 11.7648C126.131 10.7786 131.302 10.1344 136.5 9.83648C137.432 9.83648 138.136 10.3023 138.136 11.0065C138.255 11.938 138.255 12.8808 138.136 13.8123L135.276 27.6031Z" fill="white"/>
<path fill-rule="evenodd" clip-rule="evenodd" d="M127.335 39.758V35.5547H113.75V39.758H117.726V49.8547H123.338V39.758H127.335ZM134.333 41.3939L131.538 49.8547H125.927L131.343 35.598H137.421L142.838 49.8547H137.15L134.333 41.3939ZM154.917 39.758V35.5547H141.353V39.758H145.329V49.8547H150.941V39.758H154.917ZM161.926 41.3939L159.12 49.8547H153.508L158.925 35.598H165.002L170.419 49.8547H164.808L161.926 41.3939Z" fill="white"/>
<path fill-rule="evenodd" clip-rule="evenodd" d="M13.5525 67.8059V63.8301H0V67.8059H3.97583V77.8592H9.5875V67.8059H13.5525ZM20.5833 69.4417L17.5392 77.8592H12.1225L17.5392 63.8301H23.3892L28.8058 77.8592H23.3892L20.5833 69.4417ZM41.1667 67.8059V63.8301H27.5817V67.8059H31.5575V77.8592H37.1692V67.8059H41.1667ZM48.1867 69.4417L45.1425 77.8592H39.7258L45.1425 63.8301H50.9167L56.3333 77.8592H50.9167L48.1867 69.4417Z" fill="white"/>
<path d="M75.2297 75.4258L75.6576 77.3887C74.5189 77.8467 73.2922 78.0537 72.0637 77.9953C69.8845 77.9953 68.1632 77.3747 66.8996 76.1335C65.6361 74.8923 65.0029 73.2285 65 71.142C65 68.9432 65.6945 67.198 67.0836 65.9062C68.5247 64.5932 70.4351 63.8951 72.3974 63.9644C73.8606 63.9644 74.9759 64.1595 75.7431 64.5499L75.2083 66.5296C74.3526 66.1711 73.43 65.9931 72.5001 66.0073C71.8552 65.9787 71.2112 66.0798 70.6073 66.3043C70.0034 66.5288 69.4522 66.872 68.9875 67.3131C68.0976 68.1977 67.6398 69.4192 67.6398 71.0198C67.6398 72.5278 68.0676 73.7241 68.9233 74.6002C69.779 75.4764 70.9556 75.9144 72.4744 75.9144C73.4168 75.935 74.3538 75.7688 75.2297 75.4258Z" fill="white"/>
<path d="M82.9523 78.0163C82.0807 78.0503 81.2123 77.893 80.4101 77.5557C79.608 77.2183 78.8921 76.7095 78.3144 76.066C77.1159 74.6788 76.4912 72.8985 76.5646 71.0788C76.4898 69.1988 77.148 67.3618 78.4043 65.9441C78.9975 65.2915 79.7284 64.7744 80.5457 64.4288C81.363 64.0832 82.2471 63.9175 83.1362 63.9433C84.0134 63.9047 84.8883 64.0599 85.6966 64.3973C86.505 64.7348 87.2265 65.246 87.8083 65.8935C88.9946 67.2703 89.6143 69.0345 89.5453 70.8387C89.5453 73.0852 88.9321 74.8403 87.7056 76.1039C87.0963 76.7363 86.3574 77.2339 85.5379 77.5636C84.7184 77.8933 83.837 78.0476 82.9523 78.0163ZM83.0421 76.0155C83.595 76.0319 84.1429 75.9085 84.6335 75.6571C85.1242 75.4056 85.5411 75.0345 85.8445 74.5791C86.5707 73.5032 86.9372 72.2308 86.8927 70.9398C86.9282 69.6901 86.5776 68.4592 85.8873 67.4099C85.5727 66.9599 85.1516 66.5919 84.6604 66.3377C84.1693 66.0835 83.6227 65.9506 83.0678 65.9506C82.5129 65.9506 81.9663 66.0835 81.4751 66.3377C80.9839 66.5919 80.5629 66.9599 80.2483 67.4099C79.543 68.4829 79.1877 69.7424 79.23 71.0198C79.184 72.2836 79.5449 73.5293 80.2611 74.5791C80.5626 75.0314 80.9761 75.4006 81.4627 75.6519C81.9492 75.9032 82.4928 76.0283 83.0421 76.0155Z" fill="white"/>
<path d="M94.042 77.793H91.7017V64.1664H94.5939L98.1664 70.0088C99.057 71.4783 99.846 73.0051 100.528 74.5791L100.567 74.558C100.415 73.0893 100.341 71.2093 100.344 68.9178V64.1664H102.684V77.793H100.053L96.4422 71.7864C95.5292 70.2719 94.7064 68.7066 93.9779 67.0982H93.8923C93.9893 68.7409 94.0377 70.6743 94.0377 72.8984L94.042 77.793Z" fill="white"/>
<path d="M104.986 77.1443L105.564 75.0846C106.579 75.6669 107.735 75.9668 108.91 75.9523C109.566 75.9927 110.217 75.8147 110.758 75.4468C110.97 75.2903 111.141 75.0857 111.256 74.8503C111.37 74.6148 111.426 74.3557 111.417 74.0947C111.421 73.8564 111.372 73.6201 111.275 73.402C111.177 73.1838 111.033 72.9891 110.852 72.831C110.29 72.3946 109.654 72.0595 108.974 71.8412C106.467 70.9791 105.213 69.6649 105.213 67.8985C105.201 67.3545 105.318 66.8152 105.554 66.3232C105.79 65.8312 106.139 65.4 106.573 65.0637C107.586 64.2947 108.843 63.905 110.12 63.9643C111.257 63.938 112.385 64.1656 113.419 64.6298L112.824 66.6517C111.967 66.2196 111.015 65.9984 110.052 66.0072C109.441 65.9602 108.833 66.1323 108.34 66.4916C108.159 66.6324 108.012 66.8118 107.911 67.0165C107.81 67.2211 107.758 67.4457 107.758 67.6732C107.758 67.9007 107.81 68.1252 107.911 68.3299C108.012 68.5345 108.159 68.714 108.34 68.8547C108.974 69.2896 109.669 69.6303 110.403 69.8656C111.43 70.1967 112.362 70.7659 113.119 71.5252C113.701 72.1877 114.007 73.0425 113.975 73.9178C113.987 74.4732 113.871 75.0241 113.638 75.53C113.405 76.0358 113.06 76.4838 112.627 76.8411C111.735 77.6161 110.438 78.0036 108.738 78.0036C108.018 78.0052 107.299 77.9203 106.599 77.7509C106.035 77.6239 105.492 77.4197 104.986 77.1443Z" fill="white"/>
<path d="M116.243 64.1664H118.767V72.1107C118.767 73.4038 119.019 74.3811 119.529 75.034C119.767 75.3512 120.081 75.6064 120.443 75.7774C120.804 75.9484 121.203 76.0301 121.604 76.0154C123.546 76.0154 124.517 74.7138 124.517 72.1107V64.1664H127.046V71.9464C127.046 73.9795 126.555 75.4987 125.574 76.504C124.593 77.5094 123.241 78.012 121.518 78.012C119.85 78.012 118.553 77.5234 117.629 76.5462C116.705 75.5689 116.243 74.0441 116.243 71.9717V64.1664Z" fill="white"/>
<path d="M129.938 77.793V64.1664H132.466V75.7121H138.153V77.793H129.938Z" fill="white"/>
<path d="M140.72 77.793V66.2473H136.779V64.1664H147.219V66.2473H143.235V77.793H140.72Z" fill="white"/>
<path d="M148.853 64.1664H151.377V77.793H148.853V64.1664Z" fill="white"/>
<path d="M156.597 77.793H154.256V64.1664H157.149L160.725 70.0088C161.613 71.4792 162.401 73.006 163.083 74.5791L163.126 74.558C162.974 73.0893 162.899 71.2093 162.899 68.9178V64.1664H165.239V77.793H162.621L159.006 71.7864C158.096 70.2701 157.273 68.7049 156.541 67.0982H156.46C156.554 68.7409 156.602 70.6743 156.605 72.8984L156.597 77.793Z" fill="white"/>
<path d="M179.247 70.2617V77.1655C177.827 77.6836 176.324 77.9447 174.81 77.9363C172.468 77.9363 170.654 77.3298 169.368 76.1167C168.082 74.9035 167.438 73.2327 167.438 71.1041C167.438 68.9475 168.151 67.2289 169.578 65.9484C171.004 64.6678 172.858 64.0276 175.14 64.0276C176.398 63.9724 177.654 64.194 178.815 64.6763L178.263 66.6771C177.27 66.2611 176.197 66.0613 175.118 66.0916C173.775 66.0264 172.461 66.4885 171.464 67.3763C170.549 68.2187 170.087 69.4319 170.087 70.982C170.087 72.5321 170.515 73.7283 171.404 74.6045C171.863 75.0485 172.41 75.3945 173.011 75.6206C173.611 75.8468 174.253 75.9483 174.896 75.9187C175.543 75.9516 176.191 75.8615 176.804 75.6533V72.233H174.361V70.2617H179.247Z" fill="white"/>
<path d="M193.828 69.7266V71.7484H188.612V75.7374H194.444V77.7803H186.084V64.1664H194.136V66.2094H188.612V69.7266H193.828Z" fill="white"/>
<path d="M198.988 77.793H196.647V64.1664H199.539L203.116 70.0088C204.003 71.4801 204.792 73.0067 205.478 74.5791L205.516 74.558C205.365 73.0893 205.29 71.2093 205.29 68.9178V64.1664H207.634V77.793H205.003L201.383 71.7864C200.474 70.2701 199.651 68.7049 198.919 67.0982H198.838C198.938 68.7409 198.986 70.6743 198.983 72.8984L198.988 77.793Z" fill="white"/>
<path d="M221.633 70.2617V77.1655C220.214 77.6836 218.71 77.9447 217.196 77.9363C214.855 77.9363 213.041 77.3298 211.754 76.1167C210.468 74.9035 209.825 73.2327 209.825 71.1041C209.825 68.9475 210.538 67.2289 211.964 65.9484C213.39 64.6678 215.244 64.0276 217.526 64.0276C218.785 63.9724 220.04 64.194 221.201 64.6763L220.649 66.6771C219.656 66.2611 218.583 66.0613 217.504 66.0916C216.162 66.0264 214.848 66.4885 213.851 67.3763C212.935 68.2187 212.473 69.4319 212.473 70.982C212.473 72.5321 212.901 73.7283 213.791 74.6045C214.249 75.0485 214.796 75.3945 215.397 75.6206C215.998 75.8468 216.64 75.9483 217.282 75.9187C217.929 75.9516 218.577 75.8615 219.19 75.6533V72.233H216.747V70.2617H221.633Z" fill="white"/>
<path d="M224.23 64.1664H226.754V77.793H224.23V64.1664Z" fill="white"/>
<path d="M231.961 77.793H229.621V64.1664H232.517L236.09 70.0088C236.98 71.4783 237.77 73.0051 238.452 74.5791L238.494 74.558C238.346 73.0893 238.27 71.2093 238.268 68.9178V64.1664H240.608V77.793H237.981L234.366 71.7864C233.456 70.2701 232.633 68.7049 231.901 67.0982H231.82C231.914 68.7409 231.961 70.6743 231.961 72.8984V77.793Z" fill="white"/>
<path d="M251.266 69.7266V71.7484H246.05V75.7374H251.882V77.7803H243.526V64.1664H251.574V66.2094H246.05V69.7266H251.266Z" fill="white"/>
<path d="M261.842 69.7266V71.7484H256.626V75.7374H262.458V77.7803H254.102V64.1664H262.15V66.2094H256.626V69.7266H261.842Z" fill="white"/>
<path d="M264.678 77.7929V64.3644C265.939 64.146 267.219 64.0444 268.499 64.0611C270.453 64.0611 271.879 64.4247 272.777 65.152C273.175 65.491 273.49 65.915 273.696 66.3917C273.902 66.8684 273.995 67.3852 273.967 67.9026C273.988 68.6793 273.731 69.4384 273.239 70.0466C272.775 70.628 272.152 71.0665 271.443 71.3103V71.3735C272.375 71.7105 273.018 72.5866 273.372 74.0019C273.988 76.3186 274.352 77.5823 274.463 77.7929H271.896C271.477 76.7556 271.167 75.6786 270.972 74.579C270.862 73.9028 270.566 73.2691 270.116 72.7467C269.659 72.371 269.077 72.1732 268.482 72.1907H267.198V77.7929H264.678ZM267.181 66.0492V70.371H268.683C269.405 70.4102 270.118 70.1952 270.694 69.7644C270.937 69.5664 271.13 69.3159 271.258 69.0324C271.386 68.749 271.447 68.4402 271.434 68.1301C271.455 67.8225 271.401 67.5144 271.277 67.2311C271.154 66.9478 270.964 66.6973 270.724 66.4999C270.143 66.0935 269.437 65.8971 268.726 65.9439C268.209 65.9239 267.691 65.9592 267.181 66.0492Z" fill="white"/>
<path d="M275.747 77.1442L276.32 75.0845C277.337 75.6664 278.494 75.9662 279.67 75.9522C280.326 75.9913 280.977 75.8134 281.518 75.4467C281.729 75.2893 281.899 75.0843 282.013 74.8491C282.127 74.6138 282.182 74.3551 282.173 74.0946C282.177 73.8563 282.129 73.62 282.031 73.4019C281.934 73.1837 281.789 72.989 281.608 72.8309C281.047 72.3936 280.411 72.0584 279.73 71.8411C277.226 70.979 275.974 69.6647 275.974 67.8984C275.962 67.358 276.077 66.8223 276.31 66.3328C276.543 65.8434 276.888 65.4134 277.317 65.0762C278.333 64.2995 279.596 63.9052 280.881 63.9642C282.02 63.9371 283.151 64.1646 284.188 64.6297L283.593 66.6516C282.735 66.2204 281.784 65.9993 280.821 66.0071C280.21 65.9624 279.603 66.1342 279.11 66.4915C278.932 66.628 278.788 66.8024 278.689 67.0016C278.589 67.2008 278.537 67.4196 278.536 67.6415C278.529 67.875 278.578 68.1068 278.68 68.3178C278.782 68.5288 278.934 68.7128 279.122 68.8546C279.756 69.2895 280.451 69.6302 281.185 69.8655C282.204 70.2006 283.128 70.7695 283.88 71.5251C284.461 72.1884 284.766 73.0426 284.736 73.9177C284.747 74.4726 284.632 75.023 284.399 75.5287C284.167 76.0344 283.823 76.4827 283.392 76.841C282.494 77.616 281.196 78.0035 279.499 78.0035C278.787 78.0034 278.077 77.9185 277.385 77.7508C276.813 77.626 276.261 77.4218 275.747 77.1442Z" fill="white"/>
</g>
<defs>
<clipPath id="clip0_2410_27513">
<rect width="284.738" height="78" fill="white" transform="translate(0 0.0214844)"/>
</clipPath>
</defs>
</svg>
