<svg width="349" height="56" viewBox="0 0 349 56" fill="none" xmlns="http://www.w3.org/2000/svg">
<path d="M346.777 23.2633C348.171 20.4532 348.69 17.2896 348.266 14.1814C347.876 11.4104 346.712 8.80578 344.907 6.66737C343.165 4.48888 340.897 2.79036 338.317 1.73227C335.736 0.674181 332.928 0.291462 330.159 0.62027C328.114 0.774301 326.122 1.34326 324.305 2.29244C322.487 3.24162 320.882 4.55111 319.588 6.14105C317.373 8.7308 316.088 11.9867 315.937 15.3909C315.825 17.5745 315.937 19.7582 315.881 21.9419V22.4234H316.363C317.292 22.4457 318.22 22.5242 319.14 22.6586C320.859 22.9128 322.506 23.5282 323.971 24.4643C325.436 25.4004 326.686 26.636 327.639 28.0898C328.744 29.7679 329.505 31.648 329.879 33.6217C330.386 35.9121 330.424 38.2816 329.991 40.5871C329.292 44.3192 327.162 47.6304 324.056 49.8145C321.929 51.3507 319.416 52.2622 316.799 52.4461C314.884 52.5693 312.958 52.4461 311.032 52.4461H310.64V44.2154C310.64 44.2154 310.92 44.2154 311.099 44.2154C312.683 44.0898 314.237 43.7118 315.702 43.0955C318.696 41.828 321.172 39.5815 322.723 36.7237C323.954 34.4343 324.527 31.8493 324.381 29.2544C324.381 28.7729 324.381 28.7617 323.854 28.7505C322.24 28.6997 320.626 28.8236 319.039 29.12C317.08 29.4571 315.224 30.2378 313.613 31.4023C312.002 32.5669 310.679 34.0845 309.744 35.839C308.891 37.4084 308.286 39.1009 307.953 40.8559C307.897 41.1694 307.885 41.2478 307.885 41.2478C307.129 41.1026 306.381 40.9156 305.646 40.6879C303.851 40.0713 302.241 39.0141 300.961 37.6132C299.681 36.2123 298.774 34.5126 298.322 32.6699C298.144 31.9858 298.05 31.2826 298.042 30.5758V30.1279H295.041C295.041 30.1279 295.041 30.7102 295.041 30.867C295.169 33.5069 296.073 36.0505 297.639 38.1795C299.874 41.2837 303.241 43.3835 307.012 44.025C307.359 44.025 307.684 44.1706 307.684 44.1706V52.5357H296.206V55.4137H321.099C322.514 55.4005 323.925 55.2807 325.321 55.0553C327.879 54.668 330.372 53.9373 332.734 52.8829C335.33 51.7497 337.678 50.1174 339.644 48.0788C341.859 45.785 343.565 43.0488 344.649 40.0496C345.508 37.6589 345.999 35.1518 346.105 32.6139C346.228 30.4289 346.012 28.2382 345.467 26.1189C345.467 25.9621 345.321 25.6709 345.321 25.6709C345.426 25.5619 345.523 25.4459 345.612 25.3238C346.058 24.6711 346.448 23.9818 346.777 23.2633ZM310.954 40.8559C311.333 38.8797 312.19 37.0265 313.451 35.4583C315.089 33.5407 317.363 32.2767 319.856 31.8972C320.312 31.7927 320.783 31.7738 321.245 31.8412C321.158 32.7251 320.923 33.5881 320.551 34.3944C319.751 36.2553 318.476 37.8736 316.855 39.088C315.234 40.3024 313.323 41.0703 311.312 41.315L310.831 41.371L310.954 40.8559ZM344.325 21.4604L344.078 21.9755C344.078 21.9755 343.328 20.5309 342.958 19.8814C341.954 18.2173 340.713 16.7083 339.274 15.4021C338.522 14.7113 337.826 13.9624 337.191 13.1624C336.478 12.3111 336.024 11.2736 335.881 10.1724C335.813 9.80328 335.824 9.42391 335.913 9.05917C336.001 8.69444 336.166 8.35257 336.396 8.05596L333.921 6.4098C333.842 6.50007 333.77 6.59754 333.709 6.70096C333.229 7.49634 332.944 8.39454 332.88 9.32137C332.809 10.7829 333.163 12.2338 333.899 13.4983C334.801 14.9998 335.935 16.349 337.259 17.4961C338.591 18.7414 339.724 20.1842 340.618 21.7739C342.689 25.5828 343.497 29.9511 342.925 34.2488C342.519 37.9077 341.134 41.3894 338.916 44.3273C336.646 47.3784 333.514 49.6796 329.924 50.9344C329.01 51.2649 328.079 51.5453 327.135 51.7742C326.923 51.8315 326.705 51.8616 326.486 51.8638L326.766 51.5167C328.676 49.7221 330.3 47.6448 331.581 45.3576C332.64 43.1208 333.22 40.6872 333.283 38.2131C333.386 35.49 332.968 32.7725 332.051 30.2063C330.911 26.905 328.715 24.0713 325.803 22.1435C323.89 20.8908 321.72 20.0834 319.453 19.7806L318.86 19.691C318.86 19.691 318.86 19.3999 318.86 19.1535C318.86 18.0337 318.86 16.9138 318.86 15.794C318.901 13.4484 319.598 11.1612 320.873 9.1918C322.147 7.22237 323.948 5.64954 326.071 4.65167C328.499 3.45548 331.245 3.06326 333.91 3.53183C336.686 3.93414 339.267 5.19501 341.29 7.1377C343.364 9.06009 344.733 11.6235 345.176 14.4166C345.557 16.8089 345.262 19.2602 344.325 21.494V21.4604Z" fill="white"/>
<path d="M312.901 8.52582C312.705 7.47842 312.302 6.48084 311.714 5.59186C311.424 5.15587 310.996 4.83033 310.498 4.66779C310 4.50524 309.462 4.51518 308.971 4.69599C308.541 4.84706 308.151 5.09395 307.831 5.41797C307.511 5.74198 307.269 6.13461 307.123 6.56611C306.933 7.05884 306.776 7.56276 306.619 8.06669L306.44 8.72739C305.799 8.61893 305.152 8.5516 304.503 8.52582C303.836 8.54337 303.17 8.5957 302.509 8.6826C302.509 8.6826 302.352 7.93231 302.352 7.87632C302.187 7.143 301.899 6.44271 301.501 5.80463C301.278 5.41876 300.956 5.09962 300.568 4.88035C300.18 4.66108 299.74 4.54966 299.295 4.55766C298.849 4.56566 298.414 4.69278 298.034 4.92584C297.654 5.15889 297.343 5.48939 297.134 5.88301C296.681 6.6465 296.356 7.4786 296.171 8.34665C295.474 11.2835 295.099 14.2873 295.051 17.3053C294.959 19.4927 295.266 21.6785 295.958 23.7555C296.396 25.0167 297.099 26.1692 298.021 27.1352C298.942 28.1011 300.061 28.858 301.3 29.3547C301.625 29.4891 302.767 29.8026 302.767 29.8026L302.845 27.4062L301.815 26.9023C300.611 26.2852 299.611 25.3322 298.937 24.1587C298.167 22.7896 297.751 21.2499 297.728 19.6794V19.3322H298.276C298.739 19.3202 299.189 19.1756 299.572 18.9155C299.955 18.6555 300.255 18.291 300.438 17.8652C300.58 17.4323 300.574 16.9645 300.422 16.535C300.27 16.1054 299.98 15.7383 299.598 15.4912C299.279 15.3082 298.936 15.1724 298.579 15.088C298.943 14.1996 299.502 13.4038 300.214 12.7588C300.849 12.1542 301.603 11.6892 302.429 11.3937C303.254 11.0983 304.132 10.9789 305.007 11.0432C305.881 11.1075 306.732 11.3542 307.506 11.7673C308.279 12.1804 308.957 12.7509 309.497 13.4419C309.831 13.8481 310.116 14.2915 310.348 14.7633L310.494 15.088L310.158 15.1888L309.799 15.312C309.481 15.4485 309.201 15.6623 308.986 15.9341C308.771 16.2059 308.627 16.5271 308.567 16.8686C308.516 17.1839 308.536 17.5069 308.628 17.8132C308.719 18.1195 308.878 18.4012 309.093 18.6372C309.309 18.8731 309.575 19.0572 309.872 19.1757C310.169 19.2941 310.488 19.3438 310.807 19.321H311.311V19.8025C311.306 20.2684 311.261 20.7329 311.177 21.1911C310.639 23.9795 309.329 26.1744 306.518 27.2046L306.238 27.2942V29.8362L306.832 29.6571C308.134 29.2899 309.339 28.6399 310.361 27.7533C311.383 26.8667 312.197 25.7655 312.744 24.5282C313.497 22.827 313.897 20.9908 313.92 19.1306C314.057 15.566 313.714 11.9992 312.901 8.52582ZM300.527 9.50007C299.591 10.1833 298.704 10.9317 297.873 11.7397C298.071 10.2237 298.389 8.72577 298.825 7.26041C299.049 6.79008 299.396 6.73409 299.654 7.17082C300.011 7.9209 300.303 8.70016 300.527 9.50007ZM308.366 9.50007C308.622 8.73569 308.925 7.98773 309.273 7.26041C309.508 6.94686 309.945 6.84607 310.113 7.36119C310.348 8.07789 311.154 11.7285 311.154 11.7285L308.366 9.50007Z" fill="white"/>
<path d="M303.18 22.9388C303.194 22.6051 303.34 22.2907 303.586 22.0641C303.831 21.8375 304.156 21.7172 304.49 21.7294C304.825 21.7199 305.151 21.8405 305.4 22.0659C305.648 22.2914 305.799 22.6041 305.822 22.9388C305.818 23.1158 305.778 23.2901 305.705 23.4513C305.632 23.6124 305.526 23.757 305.396 23.8763C305.265 23.9957 305.111 24.0872 304.944 24.1455C304.777 24.2038 304.599 24.2275 304.423 24.2154C304.09 24.2066 303.774 24.0683 303.542 23.8298C303.309 23.5913 303.18 23.2716 303.18 22.9388Z" fill="white"/>
<path d="M21.6575 14.5723V18.4581H13.0236V40.8547H8.63387V18.4581H0V14.5723H21.6575Z" fill="white"/>
<path d="M21.5128 24.215C22.3797 23.319 23.4269 22.6172 24.5851 22.1558C25.7433 21.6944 26.9862 21.4841 28.2318 21.5386C29.4776 21.4812 30.7214 21.6902 31.88 22.1518C33.0387 22.6133 34.0855 23.3167 34.9507 24.215C36.6877 26.2207 37.5788 28.822 37.4367 31.4715C37.5783 34.1175 36.687 36.7151 34.9507 38.7168C34.0855 39.6151 33.0387 40.3185 31.88 40.78C30.7214 41.2416 29.4776 41.4506 28.2318 41.3932C26.9862 41.4477 25.7433 41.2374 24.5851 40.776C23.4269 40.3146 22.3797 39.6128 21.5128 38.7168C19.7669 36.7213 18.8777 34.1181 19.038 31.4715C18.8832 28.8222 19.7715 26.2176 21.5128 24.215ZM31.804 26.6338C31.3855 26.0922 30.8484 25.6538 30.234 25.3521C29.6196 25.0504 28.9442 24.8936 28.2598 24.8936C27.5753 24.8936 26.8999 25.0504 26.2855 25.3521C25.6711 25.6538 25.134 26.0922 24.7155 26.6338C23.7816 28.0679 23.3304 29.7629 23.4277 31.4715C23.3321 33.1764 23.7832 34.8673 24.7155 36.298C25.1121 36.8662 25.6448 37.3259 26.265 37.635C26.8851 37.9441 27.5729 38.0928 28.2653 38.0673C28.9563 38.0929 29.6425 37.9443 30.2609 37.6351C30.8793 37.3259 31.4099 36.8661 31.804 36.298C32.7363 34.8673 33.1874 33.1764 33.0918 31.4715C33.1891 29.7629 32.7379 28.0679 31.804 26.6338Z" fill="white"/>
<path d="M48.1514 37.6314C48.5852 37.6625 49.0211 37.617 49.4392 37.497V40.7893C48.67 41.0046 47.875 41.1138 47.0763 41.1141C45.5063 41.2473 43.9476 40.7519 42.7426 39.7367C42.2389 39.1138 41.8637 38.3971 41.6389 37.6283C41.414 36.8594 41.3438 36.0535 41.4324 35.2574V25.302H38.2969V22.0993H41.4324V17.4072H45.6429V22.0993H49.2712V25.302H45.5982V34.675C45.5346 35.4675 45.744 36.2578 46.1917 36.9147C46.4451 37.1716 46.7522 37.3691 47.0911 37.493C47.4299 37.6169 47.792 37.6642 48.1514 37.6314Z" fill="white"/>
<path d="M59.3487 21.5377C61.4267 21.3909 63.481 22.0529 65.0823 23.3854C65.7804 24.1112 66.3177 24.976 66.6593 25.9233C67.0008 26.8707 67.1388 27.8795 67.0644 28.8838V35.8939C67.041 37.562 67.2139 39.2271 67.5795 40.8548H63.828C63.6486 39.9968 63.5622 39.122 63.5705 38.2456H63.4921C62.7811 39.2578 61.8183 40.067 60.6989 40.5933C59.5795 41.1197 58.3422 41.3449 57.1091 41.2467C55.4479 41.327 53.816 40.7884 52.529 39.7349C51.9654 39.2333 51.5181 38.6146 51.2183 37.9222C50.9185 37.2298 50.7734 36.4802 50.7933 35.7259C50.7632 35.005 50.8955 34.2866 51.1804 33.6237C51.4653 32.9608 51.8956 32.3704 52.4394 31.8961C54.0839 30.7116 56.0191 29.9956 58.0385 29.8244C59.7096 29.5411 61.3961 29.3579 63.089 29.2757V28.5366C63.089 25.9498 61.8795 24.662 59.4383 24.662C58.4725 24.6025 57.5213 24.9196 56.7843 25.5467C56.4615 25.8573 56.204 26.2293 56.0271 26.6408C55.8502 27.0524 55.7574 27.4951 55.7541 27.9431H51.5771C51.5929 27.0627 51.7946 26.1955 52.169 25.3984C52.5434 24.6014 53.082 23.8925 53.7496 23.3182C55.3359 22.0608 57.3275 21.4274 59.3487 21.5377ZM63.0442 32.8704V31.8961C61.5998 31.9831 60.1608 32.1438 58.7328 32.3776C57.7124 32.4809 56.7305 32.8222 55.8661 33.3743C55.5857 33.6145 55.3649 33.9166 55.2211 34.2566C55.0773 34.5967 55.0144 34.9655 55.0374 35.334C55.0222 35.7124 55.093 36.0893 55.2442 36.4364C55.3955 36.7836 55.6234 37.092 55.9109 37.3385C56.6067 37.8856 57.4799 38.1568 58.3633 38.1C58.9788 38.1277 59.5936 38.0308 60.1709 37.8153C60.7481 37.5998 61.276 37.2701 61.7228 36.8458C62.1877 36.4007 62.5473 35.8574 62.7754 35.2556C62.9804 34.4778 63.071 33.6743 63.0442 32.8704Z" fill="white"/>
<path d="M75.7418 14.5723V40.8547H71.5312V14.5723H75.7418Z" fill="white"/>
<path d="M97.7597 14.5723V16.7447H83.8178V26.2969H97.0654V28.4694H83.8178V38.6151H98.2076V40.8547H81.4102V14.5723H97.7597Z" fill="white"/>
<path d="M110.125 21.6951C111.044 21.6348 111.966 21.7782 112.823 22.115C113.681 22.4518 114.453 22.9737 115.086 23.6436C116.341 25.3015 116.95 27.3593 116.799 29.4331V40.8554H114.56V29.5451C114.705 27.9537 114.272 26.3634 113.339 25.0658C112.877 24.587 112.316 24.2148 111.695 23.975C111.074 23.7352 110.408 23.6336 109.744 23.6772C109.015 23.6561 108.288 23.7888 107.613 24.0667C106.938 24.3445 106.329 24.7612 105.825 25.2897C105.278 25.8938 104.857 26.6014 104.588 27.3708C104.319 28.1401 104.206 28.9556 104.257 29.7691V40.8554H102.018V22.0982H104.257V24.6402H104.324C104.946 23.6818 105.81 22.9047 106.829 22.3875C107.847 21.8703 108.984 21.6314 110.125 21.6951Z" fill="white"/>
<path d="M134.985 22.0977L127.975 40.8549H125.03L118.02 22.1201H120.494L123.44 30.2388C123.619 30.698 124.067 31.941 124.783 33.9455C125.5 35.95 126.071 37.5178 126.463 38.6488H126.541C126.93 37.5215 127.49 35.9537 128.221 33.9455L129.565 30.2388L132.521 22.1201L134.985 22.0977Z" fill="white"/>
<path d="M139.419 14.5723V17.8198H137.18V14.5723H139.419ZM139.419 22.0975V40.8547H137.18V22.0975H139.419Z" fill="white"/>
<path d="M152.845 21.9537C153.266 21.9474 153.686 21.9849 154.099 22.0657V24.2381C153.709 24.1897 153.317 24.1636 152.924 24.1597C152.116 24.1113 151.309 24.2452 150.561 24.5515C149.812 24.8578 149.143 25.3286 148.601 25.9291C147.511 27.3658 146.975 29.1464 147.089 30.9459V40.8564H144.85V22.0992H147.089V25.0444H147.156C147.737 24.063 148.572 23.2573 149.574 22.7131C150.576 22.1688 151.706 21.9064 152.845 21.9537Z" fill="white"/>
<path d="M156.83 24.259C157.645 23.422 158.621 22.7567 159.698 22.3025C160.775 21.8483 161.932 21.6143 163.101 21.6143C164.27 21.6143 165.427 21.8483 166.504 22.3025C167.581 22.7567 168.556 23.422 169.372 24.259C170.976 26.3077 171.773 28.8737 171.611 31.4708C171.771 34.0675 170.974 36.6328 169.372 38.6825C168.553 39.5154 167.578 40.177 166.501 40.6286C165.424 41.0802 164.268 41.3128 163.101 41.3128C161.933 41.3128 160.777 41.0802 159.7 40.6286C158.624 40.177 157.648 39.5154 156.83 38.6825C155.208 36.6402 154.391 34.0745 154.534 31.4708C154.389 28.8667 155.206 26.3003 156.83 24.259ZM163.101 23.6095C162.24 23.5777 161.385 23.7523 160.605 24.1185C159.826 24.4847 159.146 25.0321 158.621 25.7148C157.443 27.3941 156.866 29.4226 156.986 31.4708C156.87 33.5185 157.446 35.5459 158.621 37.2267C159.182 37.8835 159.878 38.411 160.662 38.7727C161.446 39.1344 162.299 39.3217 163.162 39.3217C164.026 39.3217 164.879 39.1344 165.663 38.7727C166.447 38.411 167.143 37.8835 167.703 37.2267C168.874 35.5437 169.449 33.5179 169.338 31.4708C169.453 29.4232 168.877 27.3964 167.703 25.7148C167.164 25.0174 166.463 24.4613 165.662 24.0946C164.86 23.7279 163.981 23.5614 163.101 23.6095Z" fill="white"/>
<path d="M183.762 21.6951C184.681 21.6348 185.603 21.7782 186.46 22.115C187.318 22.4518 188.09 22.9737 188.723 23.6436C189.978 25.3015 190.587 27.3593 190.436 29.4331V40.8554H188.197V29.5451C188.335 27.9544 187.902 26.3664 186.976 25.0658C186.511 24.5952 185.951 24.2305 185.332 23.9966C184.714 23.7628 184.052 23.6653 183.392 23.7108C182.668 23.6938 181.948 23.8285 181.279 24.1062C180.61 24.3839 180.006 24.7985 179.507 25.3233C178.957 25.926 178.535 26.6334 178.266 27.4031C177.997 28.1728 177.885 28.9889 177.939 29.8026V40.8554H175.699V22.0982H177.939V24.6402H178.006C178.623 23.6878 179.48 22.9144 180.49 22.3974C181.5 21.8805 182.629 21.6383 183.762 21.6951Z" fill="white"/>
<path d="M214.748 21.6956C215.602 21.6419 216.457 21.7846 217.247 22.1126C218.037 22.4407 218.741 22.9455 219.306 23.5881C220.454 25.2199 221.008 27.1964 220.874 29.1873V40.8559H218.634V29.3665C218.771 27.8276 218.401 26.2862 217.581 24.9767C217.191 24.5313 216.703 24.1823 216.155 23.957C215.607 23.7317 215.014 23.6361 214.424 23.6777C213.733 23.658 213.047 23.7983 212.419 24.0878C211.792 24.3773 211.24 24.808 210.806 25.3463C209.837 26.5988 209.341 28.1535 209.407 29.736V40.8559H207.167V28.773C207.245 27.4334 206.848 26.1092 206.047 25.0327C205.67 24.5823 205.194 24.2255 204.656 23.9903C204.117 23.7552 203.532 23.6482 202.945 23.6777C202.247 23.656 201.555 23.8023 200.925 24.1044C200.296 24.4065 199.748 24.8554 199.328 25.4135C198.36 26.7504 197.878 28.3784 197.962 30.0272V40.8559H195.633V22.0987H197.928V24.5288H197.996C198.56 23.6533 199.336 22.9345 200.252 22.4392C201.168 21.9439 202.195 21.6881 203.236 21.6956C204.428 21.681 205.597 22.02 206.596 22.6699C207.592 23.3345 208.355 24.2937 208.78 25.4135C209.279 24.2607 210.117 23.2873 211.184 22.6231C212.25 21.9589 213.493 21.6354 214.748 21.6956Z" fill="white"/>
<path d="M233.19 39.3674C234.514 39.4244 235.817 39.0294 236.886 38.2475C237.839 37.498 238.504 36.4416 238.767 35.2576H241.119C240.823 36.9503 239.929 38.4803 238.599 39.5689C237.067 40.7854 235.144 41.4024 233.19 41.3047C232.005 41.359 230.822 41.1397 229.735 40.664C228.648 40.1882 227.684 39.4687 226.919 38.5611C225.316 36.4259 224.522 33.7909 224.68 31.1254C224.558 28.6363 225.355 26.1892 226.919 24.2496C227.68 23.3752 228.627 22.6835 229.691 22.2259C230.756 21.7683 231.91 21.5567 233.067 21.6068C234.964 21.5456 236.818 22.1743 238.286 23.3762C239.726 24.6509 240.683 26.3831 240.996 28.281C241.225 29.4725 241.326 30.6851 241.298 31.8981H226.953C226.852 33.9236 227.498 35.9157 228.767 37.4972C229.323 38.1132 230.007 38.5999 230.771 38.923C231.536 39.2461 232.361 39.3978 233.19 39.3674ZM237.255 25.2687C236.121 24.1719 234.606 23.5588 233.028 23.5588C231.451 23.5588 229.935 24.1719 228.801 25.2687C227.635 26.5664 226.993 28.2502 226.998 29.9944H239.058C239.039 28.2548 238.399 26.5793 237.255 25.2687Z" fill="white"/>
<path d="M253.37 21.6951C254.289 21.6348 255.211 21.7782 256.068 22.115C256.926 22.4518 257.698 22.9737 258.331 23.6436C259.589 25.3005 260.201 27.358 260.055 29.4331V40.8554H257.816V29.5451C257.957 27.9557 257.528 26.3679 256.606 25.0658C256.141 24.5958 255.581 24.2315 254.962 23.9977C254.344 23.7639 253.682 23.666 253.023 23.7108C252.297 23.695 251.576 23.8301 250.905 24.1077C250.234 24.3853 249.628 24.7993 249.126 25.3233C248.579 25.9274 248.158 26.635 247.889 27.4044C247.619 28.1737 247.507 28.9892 247.558 29.8026V40.8554H245.318V22.0982H247.558V24.6402H247.636C248.25 23.6896 249.103 22.9171 250.109 22.4001C251.115 21.8832 252.24 21.64 253.37 21.6951Z" fill="white"/>
<path d="M270.557 38.9518C270.995 38.9577 271.431 38.9088 271.856 38.8062V40.7659C271.297 40.8887 270.727 40.9488 270.154 40.9451C269.524 41.013 268.887 40.9485 268.283 40.7556C267.68 40.5628 267.123 40.2459 266.649 39.8253C265.82 38.7115 265.422 37.3351 265.529 35.9507V24.058H262.17V22.0983H265.529V17.7422H267.769V22.0983H271.565V24.058H267.769V35.8611C267.694 36.6982 267.907 37.5359 268.374 38.2351C268.659 38.5127 269.004 38.7215 269.383 38.8456C269.761 38.9698 270.163 39.0061 270.557 38.9518Z" fill="white"/>
<path d="M20.9744 48.0781H0V51.8968H20.9744V48.0781Z" fill="white"/>
</svg>
